<svg width="24" height="24" viewBox="0 0 24 24" fill="none" xmlns="http://www.w3.org/2000/svg">
<path d="M12 2C6.48 2 2 6.48 2 12C2 17.52 6.48 22 12 22C17.52 22 22 17.52 22 12C22 6.48 17.52 2 12 2Z" fill="#3DB358"/>
<path d="M5.7007 12.7001L9.2907 16.2901C9.6807 16.6801 10.3207 16.6801 10.7007 16.2901L18.2907 8.70006C18.6807 8.31006 18.6807 7.68006 18.2907 7.29006C17.9007 6.90006 17.2707 6.90006 16.8807 7.29006L10.0007 14.1701L7.1107 11.2901C6.7207 10.9001 6.0907 10.9001 5.7007 11.2901C5.3107 11.6801 5.3107 12.3101 5.7007 12.7001Z" fill="white"/>
</svg>
