<svg width="48" height="54" viewBox="0 0 48 54" fill="none" xmlns="http://www.w3.org/2000/svg">
<path fill-rule="evenodd" clip-rule="evenodd" d="M22.4088 53.6049L1.59116 41.6195C0.662983 41.0927 0 40.039 0 38.9854V26.4222V26.4217V15.0146C0 13.961 0.662983 12.9073 1.59116 12.3805L22.4088 0.395122C23.337 -0.131707 24.5304 -0.131707 25.5912 0.395122L46.4088 12.3805C47.337 12.9073 48 13.961 48 15.0146V38.9854C48 40.039 47.337 41.0927 46.4088 41.6195L25.5912 53.6049C25.0608 53.8683 24.5304 54 24 54C23.4696 54 22.9392 53.8683 22.4088 53.6049ZM1.59116 38.9854V29.534L17.3018 48.6782C17.3755 48.8066 17.4593 48.9249 17.5516 49.0333L2.38674 40.3024C1.85635 40.039 1.59116 39.5122 1.59116 38.9854ZM23.2044 52.2878L19.0903 49.9192C19.3351 49.9738 19.5824 50 19.8209 50C20.1356 50 20.3673 49.9172 20.6474 49.8172C20.7213 49.7908 20.7985 49.7632 20.8815 49.7356L43.3055 41.5055L24.663 52.2878C24.2652 52.5512 23.6022 52.5512 23.2044 52.2878ZM24.663 1.7122L39.7298 10.3317L20.8815 3.20742C20.8257 3.18518 20.7697 3.16481 20.7135 3.14627L23.2044 1.7122C23.4696 1.58049 23.7348 1.44878 24 1.44878C24.2652 1.44878 24.5304 1.58049 24.663 1.7122ZM2.38674 13.6976L15.9864 5.86785L1.59116 23.4091V15.0146C1.59116 14.4878 1.98895 13.961 2.38674 13.6976ZM1.59116 26.0284V27.0469C1.63967 27.1677 1.7059 27.2852 1.78984 27.3968L18.4951 47.7529C18.8928 48.2816 19.6883 48.546 20.2186 48.2816L44.3484 39.4254C44.8787 39.161 45.2764 38.6323 45.2764 37.9714V15.3682C45.2764 14.7073 44.8787 14.1786 44.3484 13.9142L20.3512 4.79361C20.086 4.66143 19.9535 4.66143 19.8209 4.66143C19.2906 4.66143 18.8928 4.92579 18.6276 5.32234L1.78984 25.6784C1.7059 25.79 1.63967 25.9075 1.59116 26.0284ZM24.7738 27.7296L26.4315 26.6326L26.0079 27.9202L24.7738 27.7296ZM25.617 29.1083L23.2399 28.7447L22.4689 29.2549L25.2915 30.0975L25.617 29.1083ZM24.8404 31.4687L22.1225 39.7298L20.8237 41.4274L15.3733 33.9505L20.8886 30.3007L24.8404 31.4687ZM20.7828 28.7517L21.2556 28.4412L18.1536 27.9668L20.7828 28.7517ZM16.9034 29.1229L19.1888 29.7984L16.1918 31.7663L16.9034 29.1229ZM15.6732 28.7593L14.5866 32.8713L10.5009 27.2666L10.5625 27.2489L15.6732 28.7593ZM8.38343 26.6049L8.68121 26.5181L8.38343 26.4725L20.8237 9.26788L41.0723 16.9438L40.715 17.1803L41.0723 17.0761V36.266L40.801 36.1858L20.9637 43.6247L20.8237 43.8095L14.2381 34.7018L14.0743 34.8102L14.1391 34.5648L8.38343 26.6049ZM39.7489 33.4066V18.8234L35.7089 24.1572L39.7489 33.4066ZM38.6151 34.0747L30.1183 31.5383L34.8278 25.3205L38.6151 34.0747ZM29.196 32.756L38.8514 35.6096L22.9413 41.5597L23.2631 40.5889L29.196 32.756ZM27.7784 32.337L24.6382 36.4415L26.1579 31.8581L27.7784 32.337ZM28.7108 31.1182L26.611 30.4914L26.9994 29.3197L29.7634 29.7424L28.7108 31.1182ZM36.5613 18.3911L38.1608 17.3408L31.6545 14.8747L33.5711 19.2627L36.5613 18.3911ZM32.3598 19.6158L31.1466 16.8115L29.9875 20.3073L32.3598 19.6158ZM28.3561 20.7829L30.4501 14.4182L21.7502 11.1207L21.7417 11.1522L26.6727 21.2736L28.3561 20.7829ZM11.5369 25.6857L10.6333 25.5461L19.8767 12.8518L16.8984 24.1228L11.5369 25.6857ZM18.3647 23.6954L21.1907 13.1988L25.3523 21.6585L18.3647 23.6954ZM17.5777 26.6184L22.8029 27.4253L26.8741 24.752L25.9271 22.8269L17.983 25.1132L17.5777 26.6184ZM30.3958 28.9158L28.5882 25.2054L33.4003 22.0209L34.2205 23.9167L30.3958 28.9158ZM28.9702 23.3756L32.8327 20.8394L29.4924 21.8008L28.9702 23.3756ZM36.9965 19.641L34.4674 21.3147L35.1011 22.7656L37.6314 19.4583L36.9965 19.641ZM16.5258 25.5326L16.2914 26.4198L14.4377 26.1336L16.5258 25.5326ZM27.8537 26.7432L27.3926 28.134L28.632 28.3253L27.8537 26.7432ZM27.8673 22.2685L27.5811 23.1383L27.2447 22.4477L27.8673 22.2685Z" fill="white"/>
</svg>
