<svg width="36" height="36" viewBox="0 0 36 36" fill="none" xmlns="http://www.w3.org/2000/svg">
<path fill-rule="evenodd" clip-rule="evenodd" d="M3 18C3 9.72 9.705 3 17.985 3C26.28 3 33 9.72 33 18C33 26.28 26.28 33 17.985 33C9.705 33 3 26.28 3 18ZM6 18C6 24.63 11.37 30 18 30C24.63 30 30 24.63 30 18C30 11.37 24.63 6 18 6C11.37 6 6 11.37 6 18ZM11.025 24.87C12.555 22.455 15.15 21 18 21C20.85 21 23.445 22.44 24.99 24.87C25.32 25.395 25.155 26.085 24.63 26.415C24.435 26.52 24.24 26.58 24.03 26.58C23.655 26.58 23.28 26.4 23.07 26.055C21.96 24.285 20.07 23.235 18 23.235C15.93 23.235 14.04 24.285 12.93 26.055C12.6 26.58 11.91 26.745 11.385 26.415C10.86 26.085 10.695 25.395 11.025 24.87ZM12.75 16.5C13.9926 16.5 15 15.4926 15 14.25C15 13.0074 13.9926 12 12.75 12C11.5074 12 10.5 13.0074 10.5 14.25C10.5 15.4926 11.5074 16.5 12.75 16.5ZM23.25 16.5C24.4926 16.5 25.5 15.4926 25.5 14.25C25.5 13.0074 24.4926 12 23.25 12C22.0074 12 21 13.0074 21 14.25C21 15.4926 22.0074 16.5 23.25 16.5Z" fill="#FF3042"/>
</svg>
