<svg width="98" height="18" viewBox="0 0 98 18" fill="none" xmlns="http://www.w3.org/2000/svg">
<path d="M10.8225 7.5L9 1.5L7.1775 7.5H1.5L6.135 10.8075L4.3725 16.5L9 12.9825L13.635 16.5L11.8725 10.8075L16.5 7.5H10.8225Z" fill="#FFAF4A"/>
<path d="M30.8225 7.5L29 1.5L27.1775 7.5H21.5L26.135 10.8075L24.3725 16.5L29 12.9825L33.635 16.5L31.8725 10.8075L36.5 7.5H30.8225Z" fill="#FFAF4A"/>
<path d="M50.8225 7.5L49 1.5L47.1775 7.5H41.5L46.135 10.8075L44.3725 16.5L49 12.9825L53.635 16.5L51.8725 10.8075L56.5 7.5H50.8225Z" fill="#FFAF4A"/>
<path d="M70.8225 7.5L69 1.5L67.1775 7.5H61.5L66.135 10.8075L64.3725 16.5L69 12.9825L73.635 16.5L71.8725 10.8075L76.5 7.5H70.8225Z" fill="#FFAF4A"/>
<path d="M90.8225 7.5L89 1.5L87.1775 7.5H81.5L86.135 10.8075L84.3725 16.5L89 12.9825L93.635 16.5L91.8725 10.8075L96.5 7.5H90.8225Z" fill="white" fill-opacity="0.4"/>
<path fill-rule="evenodd" clip-rule="evenodd" d="M91 7.5H90.8225L89 1.5L87.1775 7.5H81.5L86.135 10.8075L84.3725 16.5L89 12.9825L91 14.5003V7.5Z" fill="#FFAF4A"/>
</svg>
